<?xml version="1.0" standalone="no"?>
<!DOCTYPE svg PUBLIC "-//W3C//DTD SVG 20010904//EN"
 "http://www.w3.org/TR/2001/REC-SVG-20010904/DTD/svg10.dtd">
<svg version="1.0" xmlns="http://www.w3.org/2000/svg"
 width="428.000000pt" height="452.000000pt" viewBox="0 0 428.000000 452.000000"
 preserveAspectRatio="xMidYMid meet">

<g transform="translate(0.000000,452.000000) scale(0.100000,-0.100000)"
fill="#000000" stroke="none">
<path d="M605 3858 c-58 -22 -127 -71 -166 -120 -74 -95 -70 23 -70 -1689 0
-1425 2 -1540 17 -1580 39 -98 95 -158 191 -206 l58 -28 1550 0 1550 0 56 26
c70 33 154 118 188 189 l26 55 0 1550 0 1550 -27 57 c-33 70 -105 145 -173
178 l-50 25 -1560 2 c-1107 1 -1569 -2 -1590 -9z m1994 -917 c25 -5 77 -15
115 -21 184 -30 346 -138 417 -278 20 -41 23 -60 22 -144 -1 -86 -5 -102 -29
-145 -15 -26 -71 -91 -123 -144 -79 -79 -112 -104 -190 -143 -112 -57 -321
-136 -361 -136 -16 0 -53 -8 -82 -19 -61 -21 -253 -48 -416 -57 -81 -5 -118
-11 -129 -22 -15 -16 -131 -251 -177 -359 -28 -68 -43 -138 -30 -145 25 -14
75 16 128 77 56 62 96 86 82 48 -18 -49 -77 -134 -131 -190 -59 -61 -62 -63
-112 -63 -78 0 -103 13 -103 52 0 72 73 279 162 466 33 68 58 124 57 126 -2 1
-17 7 -32 14 -45 20 -32 47 23 47 l44 0 64 110 c89 153 142 267 142 305 0 124
236 360 361 360 38 0 136 -34 160 -56 30 -27 24 -54 -10 -54 -104 0 -261 -144
-428 -395 -76 -113 -156 -255 -149 -262 12 -12 279 30 432 68 514 126 833 383
761 613 -57 181 -330 259 -790 227 -380 -27 -688 -129 -863 -284 -64 -58 -97
-110 -120 -194 -16 -60 -16 -62 5 -107 22 -45 73 -85 149 -115 38 -16 41 -37
7 -53 -52 -24 -187 68 -230 157 -30 61 -33 186 -6 248 90 209 402 396 771 462
177 32 479 35 609 6z"/>
</g>
</svg>
