<?xml version="1.0" standalone="no"?>
<!DOCTYPE svg PUBLIC "-//W3C//DTD SVG 20010904//EN"
 "http://www.w3.org/TR/2001/REC-SVG-20010904/DTD/svg10.dtd">
<svg version="1.0" xmlns="http://www.w3.org/2000/svg"
 width="512.000000pt" height="512.000000pt" viewBox="0 0 512.000000 512.000000"
 preserveAspectRatio="xMidYMid meet">

<g transform="translate(0.000000,512.000000) scale(0.100000,-0.100000)"
fill="#000000" stroke="none">
<path d="M2840 4796 c-102 -27 -170 -96 -190 -193 -21 -101 17 -230 95 -323
l38 -45 -238 -5 c-234 -5 -237 -5 -256 -29 -18 -21 -19 -42 -19 -273 l0 -250
29 -29 c27 -27 35 -29 105 -29 l76 0 0 -594 c0 -585 0 -594 21 -620 l20 -26
870 0 c549 0 877 4 889 10 38 20 40 55 40 650 l0 578 81 4 c124 5 119 -7 119
309 0 246 -1 260 -20 279 -19 19 -33 20 -250 20 -126 0 -230 3 -230 6 0 3 16
25 35 48 59 73 88 149 93 246 4 78 2 89 -25 140 -52 99 -164 150 -301 136
-162 -17 -298 -109 -388 -263 l-37 -64 -31 58 c-43 80 -133 174 -205 212 -102
54 -228 73 -321 47z m236 -186 c67 -33 124 -93 164 -169 25 -49 60 -159 60
-188 0 -22 -3 -23 -68 -23 -142 0 -244 35 -326 110 -78 72 -123 193 -94 250
35 68 150 77 264 20z m859 26 c41 -18 55 -42 55 -98 0 -94 -85 -210 -191 -261
-60 -29 -152 -47 -247 -47 l-64 0 7 33 c32 150 110 281 202 338 75 47 175 61
238 35z m425 -711 l0 -145 -965 0 -965 0 0 145 0 145 965 0 965 0 0 -145z
m-1290 -845 l0 -540 -215 0 -215 0 0 540 0 540 215 0 215 0 0 -540z m490 0 l0
-540 -165 0 -165 0 0 540 0 540 165 0 165 0 0 -540z m600 0 l0 -540 -220 0
-220 0 0 540 0 540 220 0 220 0 0 -540z"/>
<path d="M1885 2263 c-165 -19 -360 -70 -560 -144 -131 -49 -387 -171 -492
-234 -41 -25 -76 -45 -78 -43 -1 2 -10 19 -20 38 -27 55 -45 70 -82 70 -45 0
-547 -251 -564 -281 -6 -12 -9 -33 -6 -48 11 -53 597 -1266 623 -1289 14 -12
34 -22 45 -22 26 0 540 258 556 279 19 25 15 67 -12 121 -14 27 -25 54 -25 59
0 15 84 56 154 76 44 13 81 16 145 12 80 -4 96 -9 226 -70 671 -311 1330 -388
1885 -220 208 63 325 128 616 346 376 280 629 528 711 696 37 73 39 190 7 262
-47 101 -136 160 -255 167 -114 7 -154 -11 -327 -140 -212 -160 -586 -402
-636 -411 -4 -1 -14 15 -22 35 -19 56 -68 122 -115 156 -27 20 -97 49 -203 82
-325 104 -553 200 -752 318 -178 106 -317 156 -499 181 -71 10 -252 13 -320 4z
m416 -186 c121 -31 209 -69 329 -141 193 -116 383 -198 715 -308 224 -74 255
-91 276 -156 14 -43 7 -114 -16 -148 -9 -14 -33 -33 -53 -42 -57 -26 -269 -20
-453 12 -154 27 -465 102 -564 136 -32 11 -69 20 -82 20 -33 0 -73 -43 -73
-77 0 -51 24 -70 128 -102 371 -114 766 -184 946 -167 132 13 184 33 249 97
31 32 57 64 57 72 0 10 52 42 133 84 169 88 351 204 547 349 236 174 225 167
288 171 70 5 116 -20 139 -74 34 -83 -1 -160 -137 -306 -189 -202 -690 -596
-879 -691 -240 -121 -608 -183 -940 -158 -164 13 -328 38 -466 73 -191 49
-474 153 -635 234 -38 19 -96 42 -127 50 -125 33 -303 10 -431 -54 l-60 -30
-35 72 c-223 467 -327 687 -327 696 0 12 134 93 252 152 235 118 571 230 773
258 121 17 336 6 446 -22z m-1668 -354 c8 -21 122 -261 252 -533 130 -272 239
-500 242 -507 3 -7 -59 -44 -166 -97 l-171 -86 -23 48 c-81 160 -499 1044
-496 1046 11 10 326 165 335 165 7 1 19 -16 27 -36z"/>
</g>
</svg>
